<?xml version="1.0" standalone="no"?>
<!DOCTYPE svg PUBLIC "-//W3C//DTD SVG 20010904//EN"
 "http://www.w3.org/TR/2001/REC-SVG-20010904/DTD/svg10.dtd">
<svg version="1.0" xmlns="http://www.w3.org/2000/svg"
 width="200.000000pt" height="200.000000pt" viewBox="0 0 200.000000 200.000000"
 preserveAspectRatio="xMidYMid meet">
<metadata>
Created by potrace 1.11, written by Peter Selinger 2001-2013
</metadata>
<g transform="translate(0.000000,200.000000) scale(0.100000,-0.100000)"
fill="#000000" stroke="none">
<path d="M863 1799 c-319 -54 -587 -313 -654 -629 -17 -84 -20 -263 -4 -334
83 -384 429 -655 816 -642 114 4 134 7 228 37 179 57 331 175 436 339 41 65
87 169 99 225 3 17 9 41 13 55 14 57 8 274 -11 345 -82 311 -324 539 -635 600
-75 15 -215 17 -288 4z"/>
</g>
</svg>
